{"title":"The.Suburbans.1999.iNTERNAL.DVDRip.XviD-EXViDiNT","uid":6980091,"size":745617268,"categoryP":"video","categoryS":"movies","magnet":"?xt=urn:btih:2be63949951df3eabc6db1bd6f39c2dac32b7050&amp;dn=The.Suburbans.1999.iNTERNAL.DVDRip.XviD-EXViDiNT&amp;tr=udp%3A%2F%2Ftracker.openbittorrent.com%3A80&amp;tr=udp%3A%2F%2Fopen.demonii.com%3A1337&amp;tr=udp%3A%2F%2Ftracker.coppersurfer.tk%3A6969&amp;tr=udp%3A%2F%2Fexodus.desync.com%3A6969","seeders":0,"leechers":1,"uploader":"TvTeam","files":6,"time":1327370304,"description":". \n &lt;a href=&quot;\nhttp://www.torrenting.com&quot; rel=&quot;nofollow&quot; target=&quot;_NEW&quot;&gt;\nhttp://www.torrenting.com&lt;/a&gt;          :     Once &amp; For all ;)\n\n\n               www . Torrenting . Com \n\n(((((((((((((= Enjoy No RAR releases =))))))))))))))))))))\n\n\n...................................NFO:....................................\n\n.                                                                                                     \n       \n     \n     \n       \n       \n     \n     \n                                         \n                                         \n                EXVID                    \n                                         \n         \n                                         \n         Filled the Archives             \n                                         \n         \n                                         \n                With:                    \n                                         \n         \n                                         \n                                    \n     E240                           \n                                    \n     SP               (C) 2009      \n                                         \n     \n     \n     \n                                                                                  \n                                                                                   \n               The.Suburbans.1999.iNTERNAL.DVDRip.XviD-EXViDiNT                     \n                                                                                   \n                                                                                  \n     \n                                                                                               \nEXViD aims to iNTERNAL those releases which have been lost in the archives.\nEXViD aims to PRE non-internal releases which have poor sources and are likely skipped by others. &lt;a href=&quot;\nhttp://www.imdb.com/title/tt0157075/&quot; rel=&quot;nofollow&quot; target=&quot;_NEW&quot;&gt;\nhttp://www.imdb.com/title/tt0157075/&lt;/a&gt;\nSubtitles: EN\nDate: 2012.01\n\nDirector: Donal Lardner Ward\n\nGenres: Comedy | Drama\n\nPlot:\nAn 80's one-hit wonder band named The Suburbans reform for a special performance at one of the\nex-member's wedding. At the wedding, a young record company talent scout happens to be in the\naudience and decides to give the now 40-ish performers a comeback push. The film attempts to take\na satirical look at the music business of the 90's and compare it to the simpler 80's scene.\n\nCast:\nDonal Lardner Ward\t...\tDanny\nTony Guma\t...\tRory\nCraig Bierko\t...\tMitch\nWill Ferrell\t...\tGil\nDick Clark\t...\tHimself\nAmy Brenneman\t...\tGrace\nBridgette Wilson-Sampras\t...\tLara (as Bridgette Wilson)\nBrian Chlebowski\t...\tKenny\nPerrey Reeves\t...\tAmanda\nRobert Loggia\t...\tJules\nJennifer Love Hewitt\t...\tCate\nJerry Stiller\t...\tSpeedo Silverberg\nBen Stiller\t...\tJay Rose\nLisa Gerstein\t...\tLeslie Gonzalez\nAntonio Fargas\t...\tMagee\n\nStats:\nFormat                                   : AVI\nFormat/Info                              : Audio Video Interleave\nFile size                                : 703 MiB\nDuration                                 : 1h 27mn\nOverall bit rate mode                    : Variable\nOverall bit rate                         : 1 127 Kbps\n\nVideo\nID                                       : 0\nFormat                                   : MPEG-4 Visual\nFormat profile                           : Advanced Simple@L5\nFormat settings, BVOP                    : 2\nFormat settings, QPel                    : No\nFormat settings, GMC                     : No warppoints\nFormat settings, Matrix                  : Default (H.263)\nCodec ID                                 : XVID\nCodec ID/Hint                            : XviD\nDuration                                 : 1h 27mn\nBit rate                                 : 993 Kbps\nWidth                                    : 640 pixels\nHeight                                   : 352 pixels\nDisplay aspect ratio                     : 16:9\nFrame rate                               : 23.976 fps\nColor space                              : YUV\nChroma subsampling                       : 4:2:0\nBit depth                                : 8 bits\nScan type                                : Progressive\nCompression mode                         : Lossy\nBits/(Pixel*Frame)                       : 0.184\nStream size                              : 619 MiB (88%)\nWriting library                          : XviD 64\n\nAudio\nID                                       : 1\nFormat                                   : MPEG Audio\nFormat version                           : Version 1\nFormat profile                           : Layer 3\nMode                                     : Joint stereo\nMode extension                           : MS Stereo\nCodec ID                                 : 55\nCodec ID/Hint                            : MP3\nDuration                                 : 1h 27mn\nBit rate mode                            : Variable\nBit rate                                 : 121 Kbps\nChannel(s)                               : 2 channels\nSampling rate                            : 48.0 KHz\nCompression mode                         : Lossy\nStream size                              : 75.6 MiB (11%)\nAlignment                                : Aligned on interleaves\nInterleave, duration                     : 24 ms (0.58 video frame)\nInterleave, preload duration             : 286 ms\n\n\n\nRelease notes:\nEnjoy!\n\nLooking for:\n75TB+ Archives\nDUTCH/FLEMiSH Archives\n                                                                                                    \nGreets: CRBS EPiSODE FiCO FLS iLS KLASSiGER LiPSYNC MADE NODLABS RUNNER SPRiNTER      \n   \n\n                                                                    ASCII DONE BY XX^NFO 2oo9     \n \n\nRLS-Crc: 4F56455252494445:33EF","torrent":{"xt":"urn:btih:2be63949951df3eabc6db1bd6f39c2dac32b7050","amp;dn":"The.Suburbans.1999.iNTERNAL.DVDRip.XviD-EXViDiNT","amp;tr":["udp%3A%2F%2Ftracker.openbittorrent.com%3A80","udp%3A%2F%2Fopen.demonii.com%3A1337","udp%3A%2F%2Ftracker.coppersurfer.tk%3A6969","udp%3A%2F%2Fexodus.desync.com%3A6969"],"infoHash":"2be63949951df3eabc6db1bd6f39c2dac32b7050","infoHashBuffer":{"type":"Buffer","data":[43,230,57,73,149,29,243,234,188,109,177,189,111,57,194,218,195,43,112,80]},"announce":[],"urlList":[]}}